<?xml version="1.0" encoding="UTF-8" standalone="no" ?>
<!DOCTYPE svg PUBLIC "-//W3C//DTD SVG 1.1//EN" "http://www.w3.org/Graphics/SVG/1.1/DTD/svg11.dtd">
<svg xmlns="http://www.w3.org/2000/svg" xmlns:xlink="http://www.w3.org/1999/xlink" version="1.1" width="640" height="640" viewBox="0 0 640 640" xml:space="preserve">
<desc>Created with Fabric.js 5.3.0</desc>
<defs>
</defs>
<g transform="matrix(1 0 0 1 314.0095605357 318.0446517969)" id="C48bSB4XUsXUF1bHRVRGh"  >
<g style=""   >
		<g transform="matrix(2.4944071594 0 0 2.4944071594 5.5787493247 1.5436580635)" id="Sc4mH1qFNi7V4FmUeB6yI"  >
<path style="stroke: rgb(0,0,0); stroke-width: 0; stroke-dasharray: none; stroke-linecap: butt; stroke-dashoffset: 0; stroke-linejoin: miter; stroke-miterlimit: 4; fill: rgb(0,0,0); fill-rule: nonzero; opacity: 1;"  transform=" translate(0, 0)" d="M 0 -128.287 C 70.81442 -128.287 128.287 -70.81443000000002 128.287 0 C 128.287 70.81442 70.81443000000002 128.287 0 128.287 C -70.81442 128.287 -128.287 70.81443000000002 -128.287 0 C -128.287 -70.81442 -70.81443000000002 -128.287 0 -128.287 z" stroke-linecap="round" />
</g>
		<g transform="matrix(2.1631187086 0 0 2.1631187086 5.9904394643 1.9553482031)" id="5GmOrVPoOz47eUwoMscLD"  >
<path style="stroke: rgb(0,0,0); stroke-width: 0; stroke-dasharray: none; stroke-linecap: butt; stroke-dashoffset: 0; stroke-linejoin: miter; stroke-miterlimit: 4; fill: rgb(255,255,255); fill-rule: nonzero; opacity: 1;"  transform=" translate(0, 0)" d="M 0 -128.287 C 70.81442 -128.287 128.287 -70.81443000000002 128.287 0 C 128.287 70.81442 70.81443000000002 128.287 0 128.287 C -70.81442 128.287 -128.287 70.81443000000002 -128.287 0 C -128.287 -70.81442 -70.81443000000002 -128.287 0 -128.287 z" stroke-linecap="round" />
</g>
		<g transform="matrix(0.9986295348 -0.0523359562 0.0624465341 1.1915508529 -3.3919289842 -110.6276288624)" id="hpCtHt9e_bZfrFEJE54sy"  >
<path style="stroke: rgb(0,0,0); stroke-width: 0; stroke-dasharray: none; stroke-linecap: butt; stroke-dashoffset: 0; stroke-linejoin: miter; stroke-miterlimit: 4; fill: rgb(0,0,0); fill-rule: nonzero; opacity: 1;"  transform=" translate(0, 0)" d="M 296.76454 127.01104 L 266.91379 -0.60090000000001 L 171.3914 -117.01881000000002 L -20.399640000000005 -163.28747 L -183.08621 -96.12329000000001 C -183.08621 -96.12329000000001 -372.63845000000003 138.95134000000002 -292.7877 127.01104 C -212.93694999999997 115.07074 -126.94818999999998 99.52752 -36.760959999999955 98.35873 C 53.426270000000045 97.18993999999999 18.390100000000047 116.80051999999999 97.03335000000004 131.90161999999998 C 187.62892000000005 149.29780999999997 257.20696000000004 157.29182999999998 285.57051 162.08567 C 338.55558 171.04089 296.76454 127.01104 296.76454 127.01104 z" stroke-linecap="round" />
</g>
		<g transform="matrix(0.9176413899 0.3159692697 -0.3988946301 1.1584741236 -16.6319451237 -104.4509399507)" id="cbNOQm83IdTSkVD4-yC17"  >
<path style="stroke: rgb(0,0,0); stroke-width: 1; stroke-dasharray: none; stroke-linecap: butt; stroke-dashoffset: 0; stroke-linejoin: miter; stroke-miterlimit: 4; fill: rgb(255,255,255); fill-rule: nonzero; opacity: 1;"  transform=" translate(0, 0)" d="M 144.19747 -20.23793 C 187.48105 0.8078200000000031 97.12798000000001 12.628280000000004 58.07285000000002 31.434420000000003 C 19.01772000000002 50.24055 -109.78424999999999 66.33329 -140.38126999999997 42.303270000000005 C -170.97827999999998 18.273260000000004 -157.04833999999997 -33.70710999999999 -85.90365999999997 -49.342409999999994 C -14.758969999999977 -64.97771 100.91389000000004 -41.28367999999999 144.19747000000004 -20.237929999999995 z" stroke-linecap="round" />
</g>
</g>
</g>
</svg>